{"title":"Mental 2012 DVDrip English Klam","uid":8180325,"size":1897898580,"categoryP":"video","categoryS":"movies","magnet":"?xt=urn:btih:5570885e3c5410c4a70382e02bebb0cb9b24c132&amp;dn=Mental+2012+DVDrip+English+Klam&amp;tr=udp%3A%2F%2Ftracker.openbittorrent.com%3A80&amp;tr=udp%3A%2F%2Fopen.demonii.com%3A1337&amp;tr=udp%3A%2F%2Ftracker.coppersurfer.tk%3A6969&amp;tr=udp%3A%2F%2Fexodus.desync.com%3A6969","seeders":1,"leechers":0,"uploader":"Klambake","files":-1,"time":1361615482,"description":"With: Toni Collette, Liev Schreiber and Anthony LaPaglia\n\nNa de zenuwinzinking van zijn vrouw huurt een vader van vijf dochters impulsief de eigenzinnige liftster Shaz in om voor zijn kinderen te zorgen. De wilde en charismatische Shaz verandert de meisjes, die de lachertjes van het dorp zijn, in populaire meiden. Ze drukt met name een stempel op de 16-jarige Coral die nog nooit iemand ontmoet heeft die zo onverschrokken, stoer en roekeloos is als Chaz. Maar Chaz heeft een geheim, en wanneer Coral de ware reden van haar bezoek aan het dorp ontdekt moet ze een belangrijk besluit nemen.\n\nA charismatic, crazy hothead transforms a family's life when she becomes the nanny of five girls whose mother has cracked from her husband's political ambitions and his infidelity. \n &lt;a href=&quot;\nhttp://www.imdb.com/title/tt1655416&quot; rel=&quot;nofollow&quot; target=&quot;_NEW&quot;&gt;\nhttp://www.imdb.com/title/tt1655416&lt;/a&gt;\t\n\n------------------------ Dutch Friends ------------------------\n---------------------------------------------------------------\n- Bezoek ook eens mijn vrienden op: &lt;a href=&quot; http://www.Film-Test.nl&quot; rel=&quot;nofollow&quot; target=&quot;_NEW&quot;&gt; http://www.Film-Test.nl&lt;/a&gt; --\n----- voor mijn Nederlandse Sync. ondertitels ---- en meer ----\n------- http://www.Film-Test.nl ---- Over Films en meer -------\n---------------------------------------------------------------\n\nGeneral:\n\nComplete name                    : MentalMental.avi\nFormat                           : AVI\nFormat/Info                      : Audio Video Interleave\nFile size                        : 1.75 GiB\nDuration                         : 1h 50mn\nOverall bit rate                 : 2 266 Kbps\n\nVideo:\n\nFormat                           : MPEG-4 Visual\nFormat profile                   : Simple@L3\nFormat settings, BVOP            : No\nFormat settings, QPel            : No\nFormat settings, GMC             : No warppoints\nFormat settings, Matrix          : Default (H.263)\nCodec ID                         : XVID\nCodec ID/Hint                    : XviD\nDuration                         : 1h 50mn\nBit rate                         : 1 807 Kbps\nWidth                            : 720 pixels\nHeight                           : 304 pixels\nDisplay aspect ratio             : 2.35:1\nFrame rate                       : 25.000 fps\nColor space                      : YUV\nChroma subsampling               : 4:2:0\nBit depth                        : 8 bits\nScan type                        : Progressive\nCompression mode                 : Lossy\nBits/(Pixel*Frame)               : 0.330\nStream size                      : 1.40 GiB (80%)\nWriting library                  : XviD 1.1.2 (UTC 2006-11-01)\n\nAudio:\n\nFormat                           : AC-3\nFormat/Info                      : Audio Coding 3\nMode extension                   : CM (complete main)\nCodec ID                         : 2000\nDuration                         : 1h 50mn\nBit rate mode                    : Constant\nBit rate                         : 448 Kbps\nChannel(s)                       : 6 channels\nChannel positions                : Front: L C R, Side: L R, LFE\nSampling rate                    : 48.0 KHz\nBit depth                        : 16 bits\nCompression mode                 : Lossy\nStream size                      : 355 MiB (20%)\nAlignment                        : Aligned on interleaves\nInterleave, duration             : 32 ms (0.80 video frame)\nInterleave, preload duration     : 32 ms","torrent":{"xt":"urn:btih:5570885e3c5410c4a70382e02bebb0cb9b24c132","amp;dn":"Mental+2012+DVDrip+English+Klam","amp;tr":["udp%3A%2F%2Ftracker.openbittorrent.com%3A80","udp%3A%2F%2Fopen.demonii.com%3A1337","udp%3A%2F%2Ftracker.coppersurfer.tk%3A6969","udp%3A%2F%2Fexodus.desync.com%3A6969"],"infoHash":"5570885e3c5410c4a70382e02bebb0cb9b24c132","infoHashBuffer":{"type":"Buffer","data":[85,112,136,94,60,84,16,196,167,3,130,224,43,235,176,203,155,36,193,50]},"announce":[],"urlList":[]}}